name sv02_filtered_grf.mot
datacolumns 37
datarows 7
range 0.647500 0.650500
endheader
time	1_ground_force_vx	1_ground_force_vy	1_ground_force_vz	1_ground_force_px	1_ground_force_py	1_ground_force_pz	1_ground_torque_x	1_ground_torque_y	1_ground_torque_z	2_ground_force_vx	2_ground_force_vy	2_ground_force_vz	2_ground_force_px	2_ground_force_py	2_ground_force_pz	2_ground_torque_x	2_ground_torque_y	2_ground_torque_z	3_ground_force_vx	3_ground_force_vy	3_ground_force_vz	3_ground_force_px	3_ground_force_py	3_ground_force_pz	3_ground_torque_x	3_ground_torque_y	3_ground_torque_z	4_ground_force_vx	4_ground_force_vy	4_ground_force_vz	4_ground_force_px	4_ground_force_py	4_ground_force_pz	4_ground_torque_x	4_ground_torque_y	4_ground_torque_z
            0.647500	            0.000000	           -0.000000	            0.000000	            0.450000	            0.000000	            0.900000	           -0.000000	           -0.000000	            0.000000	            0.000782	           -0.001083	           -0.004814	           -0.201858	            0.000000	            0.417690	           -0.000309	            0.000522	           -0.000082	           19.230097	          194.232335	          131.253120	            0.381600	            1.022423	            1.096711	           -0.118989	           -1.201840	           -0.812147	          -12.266568	            0.621814	            0.519913	           -0.491600	            1.017683	            1.099859	            0.003711	           -0.000188	           -0.000157
            0.648000	            0.000000	           -0.000000	            0.000000	            0.450000	            0.000000	            0.900000	           -0.000000	           -0.000000	            0.000000	            0.000758	           -0.000847	           -0.001472	           -0.201858	            0.000000	            0.417690	           -0.000081	            0.000584	           -0.000067	           19.323741	          195.126618	          132.018668	            0.381598	            1.022426	            1.096705	           -0.120540	           -1.217188	           -0.823525	          -12.256974	            0.625918	            0.498419	           -0.491589	            1.017665	            1.099860	            0.003987	           -0.000204	           -0.000162
            0.648500	           -0.000000	            0.000000	            0.000000	            0.450000	            0.000000	            0.900000	           -0.000000	           -0.000000	            0.000000	            0.000729	           -0.000621	            0.001624	           -0.201858	            0.000000	            0.417690	            0.000131	            0.000635	           -0.000052	           19.415311	          196.018249	          132.788736	            0.381595	            1.022429	            1.096699	           -0.122066	           -1.232381	           -0.834853	          -12.249086	            0.631756	            0.475903	           -0.491578	            1.017648	            1.099860	            0.004279	           -0.000221	           -0.000166
            0.649000	           -0.000000	            0.000000	            0.000000	            0.450000	            0.000000	            0.900000	           -0.000000	           -0.000000	            0.000000	            0.000694	           -0.000406	            0.004461	           -0.201858	            0.000000	            0.417690	            0.000324	            0.000675	           -0.000037	           19.504881	          196.907143	          133.562982	            0.381593	            1.022432	            1.096694	           -0.123564	           -1.247416	           -0.846128	          -12.243202	            0.639345	            0.452362	           -0.491567	            1.017631	            1.099861	            0.004585	           -0.000239	           -0.000169
            0.649500	           -0.000000	            0.000000	            0.000000	            0.450000	            0.000000	            0.900000	           -0.000000	           -0.000000	            0.000000	            0.000654	           -0.000204	            0.007028	           -0.201858	            0.000000	            0.417690	            0.000499	            0.000704	           -0.000023	           19.592562	          197.793249	          134.341012	            0.381590	            1.022435	            1.096688	           -0.125037	           -1.262290	           -0.857346	          -12.239599	            0.648690	            0.427790	           -0.491556	            1.017614	            1.099861	            0.004903	           -0.000260	           -0.000171
            0.650000	           -0.000000	            0.000000	            0.000000	            0.450000	            0.000000	            0.900000	           -0.000000	           -0.000000	           -0.000000	            0.000611	           -0.000015	            0.009319	           -0.201858	            0.000000	            0.417690	            0.000655	            0.000724	           -0.000011	           19.678497	          198.676545	          135.122372	            0.381588	            1.022438	            1.096682	           -0.126484	           -1.277002	           -0.868505	          -12.238528	            0.659792	            0.402175	           -0.491546	            1.017596	            1.099862	            0.005230	           -0.000282	           -0.000172
            0.650500	           -0.000000	            0.000000	            0.000000	            0.450000	            0.000000	            0.900000	           -0.000000	           -0.000000	           -0.000000	            0.000564	            0.000159	            0.011330	           -0.201858	            0.000000	            0.417690	            0.000792	            0.000735	            0.000001	           19.763554	          199.555890	          135.908139	            0.381585	            1.022439	            1.096675	           -0.127912	           -1.291545	           -0.879611	          -12.240217	            0.672642	            0.375290	           -0.491534	            1.017580	            1.099862	            0.005565	           -0.000306	           -0.000171
